<svg xmlns="http://www.w3.org/2000/svg" width="26.88" height="26.88" viewBox="0 0 26.88 26.88"><path d="M13.44,0A13.44,13.44,0,1,1,0,13.44,13.441,13.441,0,0,1,13.44,0ZM11.5,18.375c-.4.133-.805.256-1.2.387s-.8.265-1.2.4c-.949.306-1.468.479-1.582.51s-.042-.407.195-1.326l.755-2.885,5.69-5.915,3.03,2.916L11.5,18.375ZM17.168,7.4a.656.656,0,0,0-.49-.195.635.635,0,0,0-.479.214L15.118,8.544l3.03,2.927,1.092-1.142a.667.667,0,0,0,.184-.49.651.651,0,0,0-.2-.479L17.168,7.4Z" fill="#5087f9" fill-rule="evenodd"/></svg>